<?xml version="1.0" standalone="no"?>
<!DOCTYPE svg PUBLIC "-//W3C//DTD SVG 20010904//EN"
 "http://www.w3.org/TR/2001/REC-SVG-20010904/DTD/svg10.dtd">
<svg version="1.0" xmlns="http://www.w3.org/2000/svg"
 width="375.000000pt" height="375.000000pt" viewBox="0 0 375.000000 375.000000"
 preserveAspectRatio="xMidYMid meet">

<g transform="translate(0.000000,375.000000) scale(0.100000,-0.100000)"
fill="#000000" stroke="none">
<path d="M1639 3690 c-15 -9 -64 -119 -88 -200 -16 -52 -31 -203 -31 -308 0
-51 -7 -125 -16 -165 -14 -60 -23 -79 -58 -114 -47 -46 -79 -58 -132 -48 -55
10 -259 118 -349 184 -143 106 -179 128 -236 146 -96 30 -174 -3 -186 -78 -8
-55 36 -181 124 -355 40 -79 71 -148 67 -153 -10 -17 -83 -49 -113 -49 -16 0
-96 21 -178 47 -159 50 -234 58 -288 32 -28 -14 -30 -18 -29 -66 2 -73 28
-108 157 -217 136 -114 283 -258 292 -286 11 -34 -34 -110 -87 -150 -26 -20
-105 -67 -175 -105 -143 -78 -185 -111 -214 -166 -23 -46 -24 -70 -4 -109 33
-64 88 -84 297 -105 181 -18 241 -36 290 -85 33 -33 38 -44 38 -84 0 -51 1
-49 -152 -213 -70 -75 -115 -153 -138 -236 -11 -41 -11 -50 1 -58 39 -24 175
4 319 65 152 65 189 76 261 76 43 0 63 -5 84 -22 l27 -21 -5 -141 c-4 -125 -8
-151 -36 -230 -43 -123 -41 -149 9 -197 102 -98 184 -55 354 185 52 72 121
166 155 209 79 99 90 100 176 14 51 -51 74 -86 124 -187 57 -118 81 -193 111
-351 12 -65 40 -97 91 -105 78 -13 147 105 180 305 12 81 121 397 144 420 7 8
35 16 62 18 41 4 68 -3 175 -46 70 -28 183 -75 251 -105 156 -69 201 -81 255
-67 22 6 51 20 63 30 47 38 20 132 -86 295 -87 136 -178 327 -179 378 l-1 43
71 35 c39 20 183 73 320 119 302 102 323 112 324 147 0 12 -84 68 -185 125
-82 45 -126 82 -178 148 -59 75 -77 112 -77 159 0 36 7 46 78 113 42 41 124
110 182 153 58 43 109 84 113 92 5 9 -4 26 -25 50 l-34 36 -159 13 c-187 15
-334 42 -342 62 -9 23 13 82 56 153 116 190 133 261 72 307 -44 33 -81 27
-332 -56 -184 -60 -247 -77 -257 -69 -7 6 -24 30 -37 52 -22 40 -23 51 -28
316 -3 151 -10 293 -16 314 -12 51 -42 79 -81 79 -58 0 -101 -65 -165 -253
-18 -52 -47 -126 -64 -164 -48 -105 -188 -296 -217 -296 -19 0 -53 57 -101
170 -50 117 -90 272 -103 403 -5 54 -14 106 -19 115 -24 45 -89 73 -122 52z
m319 -1072 c71 -18 142 -93 177 -188 117 -317 289 -631 469 -855 77 -97 96
-140 96 -222 0 -88 -15 -142 -43 -152 -11 -4 -239 -6 -506 -3 -502 5 -707 -3
-918 -34 -93 -14 -116 -15 -143 -4 -31 13 -60 54 -60 86 0 23 76 166 334 629
301 539 384 685 413 723 22 29 29 32 79 32 30 0 76 -5 102 -12z"/>
</g>
</svg>
