<?xml version="1.0" standalone="no"?>
<!DOCTYPE svg PUBLIC "-//W3C//DTD SVG 20010904//EN"
 "http://www.w3.org/TR/2001/REC-SVG-20010904/DTD/svg10.dtd">
<svg version="1.0" xmlns="http://www.w3.org/2000/svg"
 width="375.000000pt" height="375.000000pt" viewBox="0 0 375.000000 375.000000"
 preserveAspectRatio="xMidYMid meet">
<metadata>
Created by potrace 1.14, written by Peter Selinger 2001-2017
</metadata>
<g transform="translate(0.000000,375.000000) scale(0.100000,-0.100000)"
fill="#000000" stroke="none">
<path d="M1631 3681 c-23 -23 -78 -164 -92 -234 -5 -28 -12 -101 -14 -162 -12
-256 -19 -298 -57 -355 -61 -88 -124 -96 -260 -32 -95 44 -206 114 -336 210
-122 90 -217 114 -283 69 -77 -51 -60 -150 71 -411 60 -119 77 -162 69 -172
-6 -7 -31 -21 -55 -30 -53 -20 -84 -15 -259 43 -126 42 -224 49 -269 19 -32
-20 -35 -71 -7 -132 17 -38 40 -60 195 -193 76 -65 227 -213 238 -235 13 -25
-14 -94 -50 -128 -28 -27 -166 -111 -266 -163 -159 -82 -217 -196 -140 -276
40 -41 117 -62 271 -74 235 -19 321 -61 331 -164 5 -55 18 -35 -142 -206 -73
-77 -122 -157 -141 -230 -23 -83 -18 -88 80 -80 86 7 106 13 270 83 122 52
135 56 213 56 78 1 85 -1 104 -24 19 -23 20 -35 15 -160 -5 -120 -9 -146 -39
-235 -39 -113 -38 -143 9 -187 83 -79 157 -63 261 55 13 15 53 68 89 118 77
111 179 245 209 278 32 34 68 22 134 -48 95 -100 201 -333 220 -489 5 -40 17
-86 27 -102 17 -30 58 -50 97 -50 64 1 126 124 160 317 15 84 119 388 141 411
7 8 34 16 62 18 55 6 113 -15 409 -145 89 -39 180 -73 203 -77 49 -8 123 17
145 47 30 44 -2 133 -104 295 -74 115 -168 307 -177 357 -4 27 -1 39 18 56 28
26 167 81 404 159 230 76 295 105 295 130 0 22 -52 61 -173 128 -141 78 -267
223 -267 307 0 38 6 47 73 112 39 39 117 104 172 144 55 41 108 83 117 93 17
19 17 22 1 49 -26 44 -65 55 -233 68 -140 11 -257 29 -302 46 -35 14 -15 74
71 215 111 183 100 275 -33 274 -36 -1 -114 -22 -261 -72 -115 -39 -219 -72
-230 -74 -14 -2 -28 11 -51 45 l-32 48 -1 222 c-4 370 -13 423 -78 448 -27 10
-70 -4 -90 -29 -22 -27 -78 -151 -102 -227 -41 -127 -92 -228 -166 -330 -74
-101 -107 -131 -127 -119 -6 4 -32 52 -58 108 -76 161 -110 283 -129 459 -13
115 -29 151 -72 166 -44 15 -56 14 -78 -8z m364 -1077 c52 -24 109 -95 135
-167 64 -174 191 -448 241 -518 10 -15 19 -30 19 -33 0 -13 119 -189 192 -284
44 -57 88 -122 99 -145 29 -64 23 -194 -10 -247 -8 -12 -35 -14 -143 -13 -390
5 -922 4 -988 -1 -41 -4 -106 -9 -145 -12 -38 -3 -110 -11 -160 -19 -115 -19
-142 -15 -177 24 -48 54 -55 37 205 501 11 19 96 172 189 339 220 394 311 552
338 584 13 16 25 18 93 13 42 -3 93 -13 112 -22z"/>
</g>
</svg>
