<svg width="300" height="300" viewBox="0 0 300 300" fill="none" xmlns="http://www.w3.org/2000/svg">
<g clip-path="url(#clip0_230_2)">
<rect width="300" height="300" fill="#13110B"/>
<path d="M168.28 257.903C163.845 257.586 143.017 254.859 148.119 246.231C149.568 243.78 152.047 242.005 154.486 240.534C163.788 234.927 176.31 231.367 186.431 228.443C194.448 226.127 204.954 223.505 213.545 221.853C218.674 220.867 216.509 221.678 213.042 223.026C200.285 227.987 187.258 232.262 174.423 237.016C169.661 238.78 164.903 240.56 160.182 242.433C159.123 242.853 148.512 246.647 146.192 249.302C143.237 252.686 154.271 254.683 154.709 254.776C160.315 255.965 165.67 255.664 171.296 255.39" stroke="#16130B" stroke-width="3" stroke-linecap="round"/>
<path d="M167.777 279.014C190.191 278.643 212.465 276.894 234.264 271.279C246.625 268.095 255.277 264.905 266.544 259.467C269.996 257.801 273.371 255.962 276.625 253.938C289.882 245.692 276.58 253.169 286.398 245.84" stroke="#16130B" stroke-width="3" stroke-linecap="round"/>
<path d="M232.114 261.924C217.912 266.806 201.71 267.638 186.961 269.101C165.337 271.245 143.663 272.854 122.038 274.993" stroke="#16130B" stroke-width="3" stroke-linecap="round"/>
<path d="M88.8643 288.061C75.2939 282.802 62.278 275.479 49.687 268.263C39.1623 262.231 29.0895 255.75 19.5012 248.353" stroke="#16130B" stroke-width="3" stroke-linecap="round"/>
<path d="M44.1301 266.95C34.9095 266.95 62.5089 265.382 71.719 264.94C76.994 264.687 70.4098 260.271 68.9825 258.852C62.1169 252.031 54.8603 245.741 47.6486 239.306" stroke="#16130B" stroke-width="3" stroke-linecap="round"/>
<path d="M74.7906 240.814C62.4549 229.993 50.7857 216.205 46.8666 199.961C45.1655 192.91 44.591 185.451 44.6327 178.208C44.6625 173.039 45.4337 173.223 49.1564 170.948" stroke="#16130B" stroke-width="3" stroke-linecap="round"/>
<path d="M89.8694 221.714C104.306 225.873 119.818 228.036 134.771 225.511C155.263 222.051 169.869 210.946 183.359 196.079" stroke="#16130B" stroke-width="3" stroke-linecap="round"/>
<path d="M82.8325 223.222C105.839 233.679 131.531 239.771 156.887 238.524C172.25 237.768 187.769 234.567 202.096 228.974C210.053 225.867 215.153 221.638 222.061 217.19" stroke="#16130B" stroke-width="3" stroke-linecap="round"/>
<path d="M145.662 239.306C155.968 238.665 166.029 236.694 176.099 234.391C194.366 230.213 212.962 225.388 228.121 213.867C228.657 213.46 238.962 205.943 236.638 203.619" stroke="#16130B" stroke-width="3" stroke-linecap="round"/>
<path d="M215.527 216.185C221.056 213.939 226.346 210.523 231.248 207.165C233.154 205.86 235.74 204.356 236.638 202.111" stroke="#16130B" stroke-width="3" stroke-linecap="round"/>
<path d="M253.224 174.969C224.242 186.065 194.867 196.35 163.756 199.095" stroke="#16130B" stroke-width="3" stroke-linecap="round"/>
<path d="M128.069 177.482C113.236 173.535 98.5336 169.637 86.6303 159.276C72.5254 146.998 62.561 130 52.1721 114.653" stroke="#16130B" stroke-width="3" stroke-linecap="round"/>
<path d="M55.6905 159.89C45.501 143.552 35.9453 126.862 28.1296 109.236C26.2696 105.041 23.0195 99.0122 23.0195 94.0454" stroke="#16130B" stroke-width="3" stroke-linecap="round"/>
<path d="M34.5801 87.0086C42.966 93.8288 48.1345 99.1834 58.6505 102.925C70.2862 107.065 84.0257 107.62 96.1244 107.393C117.312 106.996 138.712 103.662 159.735 101.082" stroke="#16130B" stroke-width="3" stroke-linecap="round"/>
<path d="M63.23 59.3639C80.4433 70.2656 97.8078 78.6395 118.24 81.6472C124.759 82.6068 132.998 82.8399 139.686 81.5913C151.665 79.3548 138.947 81.101 146.164 78.4638" stroke="#16130B" stroke-width="3" stroke-linecap="round"/>
<path d="M42.6221 49.3113C50.1268 41.892 54.5293 36.6552 63.7326 31.1607C71.7752 26.3591 81.0221 23.2636 90.1486 21.3873C99.9549 19.3713 109.648 19.7028 119.525 20.1587" stroke="#16130B" stroke-width="3" stroke-linecap="round"/>
<path d="M124.551 40.7665C146.606 40.8421 170.211 40.5335 189.223 53.4999C192.885 55.9972 195.995 59.0017 197.935 62.8823" stroke="#16130B" stroke-width="3" stroke-linecap="round"/>
<path d="M177.83 24.1797C195.029 25.2221 221.685 26.7703 229.601 45.2902C232.17 51.3003 232.89 59.5242 228.596 64.8928" stroke="#16130B" stroke-width="3" stroke-linecap="round"/>
<path d="M165.767 76.4533C160.149 81.5213 154.771 86.8463 149.319 92.0907C140.181 100.882 130.115 109.417 122.149 119.344C119.812 122.258 114.826 128.581 118.212 132.664C120.768 135.747 125.219 134.651 128.572 135.261" stroke="#16130B" stroke-width="3" stroke-linecap="round"/>
<path d="M171.296 110.13C190.171 107.226 211.461 96.8348 218.18 77.8495C219.297 74.6928 219.151 68.55 221.335 65.6747C222.505 64.1355 224.565 64.7844 226.082 64.8928" stroke="#16130B" stroke-width="3" stroke-linecap="round"/>
<path d="M241.161 72.9349C242.064 90.0765 242.417 107.016 231.667 121.495C227.72 126.81 222.91 130.651 216.532 132.245" stroke="#16130B" stroke-width="3" stroke-linecap="round"/>
<path d="M254.732 42.2744C269.52 55.0328 280.285 71.6924 278.188 91.7836C277.531 98.0799 276.233 105.301 271.375 109.906C266.534 114.495 259.813 114.809 253.727 116.161" stroke="#16130B" stroke-width="3" stroke-linecap="round"/>
<path d="M153.704 130.235C141.105 135.07 125.807 139.795 116.956 150.787C111.342 157.758 114.649 162.491 117.011 169.44" stroke="#16130B" stroke-width="3" stroke-linecap="round"/>
<path d="M111.985 189.545C98.1507 186.519 86.0887 175.636 78.9792 163.744C77.3943 161.092 74.1763 155.487 74.1763 151.988C74.1763 150.487 76.7724 151.772 77.3038 151.848" stroke="#16130B" stroke-width="3" stroke-linecap="round"/>
<path d="M74.2879 194.069C66.2399 177.099 60.3029 158.835 58.9297 139.98C58.5512 134.783 58.5277 131.111 60.1025 126.353C61.1663 123.139 61.7628 123.769 63.7326 122.193" stroke="#16130B" stroke-width="3" stroke-linecap="round"/>
<path d="M129.577 224.227C113.927 219.445 99.771 211.547 87.4959 200.631C81.8647 195.623 76.782 190.137 74.2878 183.011" stroke="#15140E" stroke-width="3" stroke-linecap="round"/>
<path d="M93.8906 143.303C96.7672 135.641 97.149 132.921 102.659 126.158C110.683 116.309 121.497 108.421 132.817 102.814C138.96 99.7701 145.383 97.9224 152.196 97.5638" stroke="#15140E" stroke-width="3" stroke-linecap="round"/>
<path d="M200.951 125.209C207.438 123.484 212.432 122.528 218.487 119.289C229.56 113.366 238.51 104.42 244.68 93.5148C249.89 84.3056 252.219 74.349 252.219 63.8875" stroke="#15140E" stroke-width="3" stroke-linecap="round"/>
<path d="M260.764 32.7244C272.928 48.7303 285.784 69.4458 284.723 90.3594C284.409 96.546 282.209 100.207 276.848 102.59" stroke="#15140E" stroke-width="3" stroke-linecap="round"/>
<path d="M182.354 161.901C188.939 162.027 195.379 160.497 201.677 158.633C211.658 155.68 221.939 151.903 229.601 144.532C231.579 142.629 235.844 137.218 233.622 134.256" stroke="#15140E" stroke-width="3" stroke-linecap="round"/>
<path d="M152.698 134.256C133.113 132.935 112.596 125.511 102.268 107.449C96.2475 96.9213 95.4967 84.222 96.4036 72.4323" stroke="#15140E" stroke-width="3" stroke-linecap="round"/>
<path d="M36.5907 77.4586C36.3279 64.2566 35.0551 40.5142 49.9662 34.344C56.7317 31.5446 64.7146 33.1258 71.2722 30.2113" stroke="#15140E" stroke-width="3" stroke-linecap="round"/>
<path d="M133.096 147.827C145.833 155.249 161.288 155.602 175.345 151.708C181.556 149.988 189.834 146.909 191.904 140.287" stroke="#15140E" stroke-width="3" stroke-linecap="round"/>
<path d="M98.4143 168.435C100.068 169.956 102.113 170.659 104.222 171.423C114.317 175.076 125.19 177.575 135.944 177.929C141.129 178.099 148.99 178.32 151.805 172.623C153.5 169.193 152.319 164.902 151.693 161.398" stroke="#15140E" stroke-width="3" stroke-linecap="round"/>
<path d="M99.4194 108.119C107.341 102.07 117.07 96.7831 126.394 93.4311C143.048 87.4438 158.877 88.6771 173.53 98.96C176.591 101.108 196.591 116.935 189.39 122.695" stroke="#15140E" stroke-width="3" stroke-linecap="round"/>
<path d="M146.164 152.351C145.16 163.397 143.852 179.648 155.937 185.58C160.548 187.843 165.177 187.618 170.095 187.06C172.272 186.813 174.436 186.395 176.545 185.803C187.188 182.82 176.049 185.332 184.364 182.006" stroke="#15140E" stroke-width="3" stroke-linecap="round"/>
<path d="M149.683 236.29C166.588 243.433 187.943 246.61 205.698 240.618C213.253 238.069 217.253 234.821 222.061 228.75C227.548 221.825 228.209 215.022 231.109 207.137" stroke="#15140E" stroke-width="3" stroke-linecap="round"/>
<path d="M75.9966 90.3124V93.26" stroke="#F4EEEB" stroke-linecap="round"/>
<path d="M74.6567 91.6522C75.6257 91.6522 76.5961 91.9202 77.6043 91.9202" stroke="#F4EEEB" stroke-linecap="round"/>
<path d="M98.7734 77.9861C98.7734 79.3908 99.0414 80.832 99.0414 82.2735" stroke="#F4EEEB" stroke-linecap="round"/>
<path d="M96.3618 80.9336C97.7676 80.9336 99.0095 79.8618 100.381 79.8618" stroke="#F4EEEB" stroke-linecap="round"/>
<path d="M144.863 105.854C144.863 107.328 144.863 108.802 144.863 110.276C144.863 112.808 144.863 108.848 144.863 108.147C144.863 107.512 144.863 106.876 144.863 106.241C144.863 104.387 144.863 107.015 144.863 107.581C144.863 109.101 145.131 110.478 145.131 112.017" stroke="#F4EEEB" stroke-linecap="round"/>
<path d="M141.112 109.07C142.674 109.07 144.317 109.338 145.935 109.338C146.63 109.338 147.324 109.338 148.019 109.338C148.319 109.338 146.513 109.338 146.069 109.338C145.136 109.338 144.203 109.338 143.27 109.338C142.822 109.338 140.518 109.316 142.02 109.085C143.643 108.835 145.355 108.534 147.007 108.534" stroke="#F4EEEB" stroke-linecap="round"/>
<path d="M97.1655 144.173C97.3538 145.679 97.4335 147.355 97.4335 148.996" stroke="#F4EEEB" stroke-linecap="round"/>
<path d="M95.8257 146.853H98.5053" stroke="#F4EEEB" stroke-linecap="round"/>
<path d="M205.691 77.1822C205.523 78.6886 205.423 80.1707 205.423 81.7375" stroke="#F4EEEB" stroke-linecap="round"/>
<path d="M203.279 79.5938H206.763" stroke="#F4EEEB" stroke-linecap="round"/>
<path d="M213.73 118.181C214.605 118.29 213.462 123.348 213.462 124.076" stroke="#DBCBB9" stroke-linecap="round"/>
<path d="M281.144 20C282.019 20.1095 280.876 25.1674 280.876 25.8952" stroke="#DBCBB9" stroke-linecap="round"/>
<path d="M211.586 121.396C213.088 121.396 214.672 120.886 216.141 120.592" stroke="#DBCBB9" stroke-linecap="round"/>
<path d="M279 23.2156C280.502 23.2156 282.086 22.7056 283.555 22.4117" stroke="#DBCBB9" stroke-linecap="round"/>
<path d="M249.369 69.6792V73.4307" stroke="#DBCBB9" stroke-linecap="round"/>
<path d="M247.225 71.5549H251.513" stroke="#DBCBB9" stroke-linecap="round"/>
<path d="M135.752 49.314C135.752 51.1112 136.02 52.8971 136.02 54.6732" stroke="#DBCBB9" stroke-linecap="round"/>
<path d="M132.537 52.7975C134.622 52.7975 136.655 52.2615 138.7 52.2615" stroke="#DBCBB9" stroke-linecap="round"/>
<path d="M32.3185 50.9218C31.7578 51.2722 32.0505 52.9621 32.0505 53.6014" stroke="#DBCBB9" stroke-linecap="round"/>
<path d="M30.1748 51.7256C30.8637 52.2768 32.2561 51.9936 33.1224 51.9936" stroke="#DBCBB9" stroke-linecap="round"/>
<path d="M25.3513 121.664V130.775" stroke="#DBCBB9" stroke-linecap="round"/>
<path d="M21.8679 125.416C24.1461 125.416 26.286 124.88 28.567 124.88" stroke="#DBCBB9" stroke-linecap="round"/>
<path d="M24.0115 124.612H26.4231" stroke="#DBCBB9" stroke-linecap="round"/>
<path d="M23.4757 124.612H23.2078" stroke="#DBCBB9" stroke-linecap="round"/>
<path d="M204.083 152.48H204.619" stroke="#DBCBB9" stroke-linecap="round"/>
<path d="M172.731 155.16C172.154 155.232 172.778 155.622 172.999 155.695" stroke="#DBCBB9" stroke-linecap="round"/>
<path d="M170.855 96.4755H171.123" stroke="#DBCBB9" stroke-linecap="round"/>
<path d="M176.215 61.1043C176.187 61.3545 176.08 61.4406 175.947 61.6403" stroke="#DBCBB9" stroke-linecap="round"/>
<path d="M205.155 51.1897H205.959" stroke="#DBCBB9" stroke-linecap="round"/>
<path d="M221.233 62.1762C221.233 62.5265 221.248 62.5704 220.965 62.7121" stroke="#DBCBB9" stroke-linecap="round"/>
<path d="M213.73 60.0325H214.266" stroke="#DBCBB9" stroke-linecap="round"/>
<path d="M188.412 235.992C188.244 237.499 188.144 238.981 188.144 240.548" stroke="#F4EEEB" stroke-linecap="round"/>
<path d="M144.412 264.169C144.244 265.675 144.144 267.158 144.144 268.724" stroke="#F4EEEB" stroke-linecap="round"/>
<path d="M217.412 279.169C217.244 280.675 217.144 282.158 217.144 283.724" stroke="#F4EEEB" stroke-linecap="round"/>
<path d="M169.412 287.169C169.244 288.675 169.144 290.158 169.144 291.724" stroke="#F4EEEB" stroke-linecap="round"/>
<path d="M186 238.404H189.484" stroke="#F4EEEB" stroke-linecap="round"/>
<path d="M142 266.581H145.484" stroke="#F4EEEB" stroke-linecap="round"/>
<path d="M215 281.581H218.484" stroke="#F4EEEB" stroke-linecap="round"/>
<path d="M167 289.581H170.484" stroke="#F4EEEB" stroke-linecap="round"/>
<path d="M187.875 210H188.679" stroke="#DBCBB9" stroke-linecap="round"/>
<path d="M143.875 238.177H144.679" stroke="#DBCBB9" stroke-linecap="round"/>
<path d="M216.875 253.177H217.679" stroke="#DBCBB9" stroke-linecap="round"/>
<path d="M168.875 261.177H169.679" stroke="#DBCBB9" stroke-linecap="round"/>
<path d="M247.875 287.177H248.679" stroke="#DBCBB9" stroke-linecap="round"/>
<path d="M203.954 220.987C203.954 221.337 203.969 221.381 203.686 221.522" stroke="#DBCBB9" stroke-linecap="round"/>
<path d="M159.954 249.163C159.954 249.513 159.969 249.557 159.686 249.699" stroke="#DBCBB9" stroke-linecap="round"/>
<path d="M232.954 264.163C232.954 264.513 232.969 264.557 232.686 264.699" stroke="#DBCBB9" stroke-linecap="round"/>
<path d="M184.954 272.163C184.954 272.513 184.969 272.557 184.686 272.699" stroke="#DBCBB9" stroke-linecap="round"/>
<path d="M263.954 298.163C263.954 298.513 263.969 298.557 263.686 298.699" stroke="#DBCBB9" stroke-linecap="round"/>
<path d="M196.45 218.843H196.986" stroke="#DBCBB9" stroke-linecap="round"/>
<path d="M152.45 247.019H152.986" stroke="#DBCBB9" stroke-linecap="round"/>
<path d="M225.45 262.019H225.986" stroke="#DBCBB9" stroke-linecap="round"/>
<path d="M177.45 270.019H177.986" stroke="#DBCBB9" stroke-linecap="round"/>
<path d="M256.45 296.019H256.986" stroke="#DBCBB9" stroke-linecap="round"/>
<path d="M108.412 240.992C108.244 242.499 108.144 243.981 108.144 245.548" stroke="#F4EEEB" stroke-linecap="round"/>
<path d="M106 243.404H109.484" stroke="#F4EEEB" stroke-linecap="round"/>
<path d="M107.875 215H108.679" stroke="#DBCBB9" stroke-linecap="round"/>
<path d="M123.954 225.987C123.954 226.337 123.969 226.381 123.686 226.522" stroke="#DBCBB9" stroke-linecap="round"/>
<path d="M116.45 223.843H116.986" stroke="#DBCBB9" stroke-linecap="round"/>
<path d="M241.412 17.9924C241.244 19.4988 241.144 20.981 241.144 22.5478" stroke="#F4EEEB" stroke-linecap="round"/>
<path d="M239 20.4041H242.484" stroke="#F4EEEB" stroke-linecap="round"/>
<path d="M256.954 2.98651C256.954 3.3368 256.969 3.38075 256.686 3.52244" stroke="#DBCBB9" stroke-linecap="round"/>
<path d="M249.45 0.842773H249.986" stroke="#DBCBB9" stroke-linecap="round"/>
<path d="M21.4115 15.9924C21.2441 17.4988 21.1436 18.981 21.1436 20.5478" stroke="#F4EEEB" stroke-linecap="round"/>
<path d="M19 18.4041H22.4835" stroke="#F4EEEB" stroke-linecap="round"/>
<path d="M36.9535 0.986511C36.9535 1.3368 36.9689 1.38075 36.6855 1.52244" stroke="#DBCBB9" stroke-linecap="round"/>
<path d="M184.79 44.4906V45.0265" stroke="#DBCBB9" stroke-linecap="round"/>
<path d="M159.065 48.2421C158.875 48.2658 158.696 48.4268 158.529 48.51" stroke="#DBCBB9" stroke-linecap="round"/>
<path d="M97.7017 45.8304C97.7295 46.0806 97.8365 46.1667 97.9696 46.3664" stroke="#DBCBB9" stroke-linecap="round"/>
<path d="M72.5131 56.281C72.2662 56.2501 72.3356 56.194 72.2451 56.013" stroke="#DBCBB9" stroke-linecap="round"/>
<path d="M53.7556 42.8828C53.7953 43.2 54.0247 43.1508 54.2915 43.1508" stroke="#DBCBB9" stroke-linecap="round"/>
<path d="M49.2002 74.2346C49.2469 74.6085 49.3722 74.4264 49.4682 74.2346" stroke="#DBCBB9" stroke-linecap="round"/>
<path d="M26.9591 86.5609L26.6912 86.8288" stroke="#DBCBB9" stroke-linecap="round"/>
<path d="M59.6506 120.056V120.324" stroke="#DBCBB9" stroke-linecap="round"/>
<path d="M107.08 113.893V114.697" stroke="#DBCBB9" stroke-linecap="round"/>
<path d="M140.576 142.833C140.939 142.812 141.076 142.717 141.38 142.565" stroke="#DBCBB9" stroke-linecap="round"/>
<path d="M183.986 126.755V127.559" stroke="#DBCBB9" stroke-linecap="round"/>
<path d="M252.316 111.749V111.481" stroke="#DBCBB9" stroke-linecap="round"/>
<path d="M197.652 109.338V109.07" stroke="#F4EEEB" stroke-linecap="round"/>
<path d="M148.883 82.8094V83.3453" stroke="#F4EEEB" stroke-linecap="round"/>
<path d="M57.2156 12.8234C57.2156 14.6206 57.4835 16.4065 57.4835 18.1826" stroke="#DBCBB9" stroke-linecap="round"/>
<path d="M54 16.3069C56.0853 16.3069 58.1181 15.7709 60.1632 15.7709" stroke="#DBCBB9" stroke-linecap="round"/>
<path d="M92.3186 59.9849H92.5866" stroke="#DBCBB9" stroke-linecap="round"/>
<path d="M97.6779 24.6138C97.6501 24.8639 97.543 24.95 97.4099 25.1497" stroke="#DBCBB9" stroke-linecap="round"/>
<path d="M106.253 8V8.53593" stroke="#DBCBB9" stroke-linecap="round"/>
<path d="M80.5284 11.7515C80.3384 11.7752 80.1588 11.9362 79.9924 12.0194" stroke="#DBCBB9" stroke-linecap="round"/>
<path d="M70.3457 46.3188V46.8547" stroke="#F4EEEB" stroke-linecap="round"/>
<path d="M130.216 17.8234C130.216 19.6206 130.484 21.4065 130.484 23.1826" stroke="#DBCBB9" stroke-linecap="round"/>
<path d="M127 21.3069C129.085 21.3069 131.118 20.7709 133.163 20.7709" stroke="#DBCBB9" stroke-linecap="round"/>
<path d="M165.319 64.9849H165.587" stroke="#DBCBB9" stroke-linecap="round"/>
<path d="M170.678 29.6138C170.65 29.8639 170.543 29.95 170.41 30.1497" stroke="#DBCBB9" stroke-linecap="round"/>
<path d="M179.253 13V13.5359" stroke="#DBCBB9" stroke-linecap="round"/>
<path d="M153.528 16.7515C153.338 16.7752 153.159 16.9362 152.992 17.0194" stroke="#DBCBB9" stroke-linecap="round"/>
<path d="M143.346 51.3188V51.8547" stroke="#F4EEEB" stroke-linecap="round"/>
<path d="M198.216 21.8234C198.216 23.6206 198.484 25.4065 198.484 27.1826" stroke="#DBCBB9" stroke-linecap="round"/>
<path d="M195 25.3069C197.085 25.3069 199.118 24.7709 201.163 24.7709" stroke="#DBCBB9" stroke-linecap="round"/>
<path d="M233.319 68.9849H233.587" stroke="#DBCBB9" stroke-linecap="round"/>
<path d="M238.678 33.6138C238.65 33.8639 238.543 33.95 238.41 34.1497" stroke="#DBCBB9" stroke-linecap="round"/>
<path d="M247.253 17V17.5359" stroke="#DBCBB9" stroke-linecap="round"/>
<path d="M221.528 20.7515C221.338 20.7752 221.159 20.9362 220.992 21.0194" stroke="#DBCBB9" stroke-linecap="round"/>
<path d="M211.346 55.3188V55.8547" stroke="#F4EEEB" stroke-linecap="round"/>
<path d="M229.216 130.823C229.216 132.621 229.484 134.407 229.484 136.183" stroke="#DBCBB9" stroke-linecap="round"/>
<path d="M226 134.307C228.085 134.307 230.118 133.771 232.163 133.771" stroke="#DBCBB9" stroke-linecap="round"/>
<path d="M264.319 177.985H264.587" stroke="#DBCBB9" stroke-linecap="round"/>
<path d="M269.678 142.614C269.65 142.864 269.543 142.95 269.41 143.15" stroke="#DBCBB9" stroke-linecap="round"/>
<path d="M278.253 126V126.536" stroke="#DBCBB9" stroke-linecap="round"/>
<path d="M252.528 129.751C252.338 129.775 252.159 129.936 251.992 130.019" stroke="#DBCBB9" stroke-linecap="round"/>
<path d="M242.346 164.319V164.855" stroke="#F4EEEB" stroke-linecap="round"/>
<path d="M230.216 201.823C230.216 203.621 230.484 205.407 230.484 207.183" stroke="#DBCBB9" stroke-linecap="round"/>
<path d="M186.216 230C186.216 231.797 186.484 233.583 186.484 235.359" stroke="#DBCBB9" stroke-linecap="round"/>
<path d="M259.216 245C259.216 246.797 259.484 248.583 259.484 250.359" stroke="#DBCBB9" stroke-linecap="round"/>
<path d="M211.216 253C211.216 254.797 211.484 256.583 211.484 258.359" stroke="#DBCBB9" stroke-linecap="round"/>
<path d="M290.216 279C290.216 280.797 290.484 282.583 290.484 284.359" stroke="#DBCBB9" stroke-linecap="round"/>
<path d="M227 205.307C229.085 205.307 231.118 204.771 233.163 204.771" stroke="#DBCBB9" stroke-linecap="round"/>
<path d="M183 233.483C185.085 233.483 187.118 232.948 189.163 232.948" stroke="#DBCBB9" stroke-linecap="round"/>
<path d="M256 248.483C258.085 248.483 260.118 247.948 262.163 247.948" stroke="#DBCBB9" stroke-linecap="round"/>
<path d="M208 256.483C210.085 256.483 212.118 255.948 214.163 255.948" stroke="#DBCBB9" stroke-linecap="round"/>
<path d="M287 282.483C289.085 282.483 291.118 281.948 293.163 281.948" stroke="#DBCBB9" stroke-linecap="round"/>
<path d="M265.319 248.985H265.587" stroke="#DBCBB9" stroke-linecap="round"/>
<path d="M270.678 213.614C270.65 213.864 270.543 213.95 270.41 214.15" stroke="#DBCBB9" stroke-linecap="round"/>
<path d="M279.253 197V197.536" stroke="#DBCBB9" stroke-linecap="round"/>
<path d="M253.528 200.751C253.338 200.775 253.159 200.936 252.992 201.019" stroke="#DBCBB9" stroke-linecap="round"/>
<path d="M243.346 235.319V235.855" stroke="#F4EEEB" stroke-linecap="round"/>
<path d="M16.2156 205.823C16.2156 207.621 16.4835 209.407 16.4835 211.183" stroke="#DBCBB9" stroke-linecap="round"/>
<path d="M13 209.307C15.0853 209.307 17.1181 208.771 19.1632 208.771" stroke="#DBCBB9" stroke-linecap="round"/>
<path d="M51.3186 252.985H51.5866" stroke="#DBCBB9" stroke-linecap="round"/>
<path d="M56.6779 217.614C56.6501 217.864 56.543 217.95 56.4099 218.15" stroke="#DBCBB9" stroke-linecap="round"/>
<path d="M65.2529 201V201.536" stroke="#DBCBB9" stroke-linecap="round"/>
<path d="M39.5284 204.751C39.3384 204.775 39.1588 204.936 38.9924 205.019" stroke="#DBCBB9" stroke-linecap="round"/>
<path d="M29.3457 239.319V239.855" stroke="#F4EEEB" stroke-linecap="round"/>
<path d="M27.7631 69.6792L27.4951 69.4112" stroke="#F4EEEB" stroke-linecap="round"/>
<path d="M75.8233 209.039C75.2627 209.389 75.5554 211.079 75.5554 211.719" stroke="#DBCBB9" stroke-linecap="round"/>
<path d="M73.6797 209.843C74.3686 210.394 75.761 210.111 76.6273 210.111" stroke="#DBCBB9" stroke-linecap="round"/>
<path d="M97.2605 201C97.3001 201.317 97.5296 201.268 97.7964 201.268" stroke="#DBCBB9" stroke-linecap="round"/>
<path d="M92.7051 232.352C92.7518 232.726 92.8771 232.544 92.973 232.352" stroke="#DBCBB9" stroke-linecap="round"/>
<path d="M71.268 227.796L71 227.528" stroke="#F4EEEB" stroke-linecap="round"/>
<path d="M291.823 160.039C291.263 160.389 291.555 162.079 291.555 162.719" stroke="#DBCBB9" stroke-linecap="round"/>
<path d="M289.68 160.843C290.369 161.394 291.761 161.111 292.627 161.111" stroke="#DBCBB9" stroke-linecap="round"/>
<path d="M287.268 178.796L287 178.528" stroke="#F4EEEB" stroke-linecap="round"/>
<path d="M55.3633 99.9591V99.6911" stroke="#F4EEEB" stroke-linecap="round"/>
<path d="M139.796 184.078V187.025" stroke="#F4EEEB" stroke-linecap="round"/>
<path d="M138.457 185.418C139.426 185.418 140.396 185.686 141.404 185.686" stroke="#F4EEEB" stroke-linecap="round"/>
<path d="M162.573 171.751C162.573 173.156 162.841 174.597 162.841 176.039" stroke="#F4EEEB" stroke-linecap="round"/>
<path d="M160.162 174.699C161.567 174.699 162.809 173.627 164.181 173.627" stroke="#F4EEEB" stroke-linecap="round"/>
<path d="M113 168C113.047 168.374 113.172 168.192 113.268 168" stroke="#DBCBB9" stroke-linecap="round"/>
<path d="M119.163 193.725V193.457" stroke="#F4EEEB" stroke-linecap="round"/>
<path d="M162.796 185.078V188.025" stroke="#F4EEEB" stroke-linecap="round"/>
<path d="M161.457 186.418C162.426 186.418 163.396 186.686 164.404 186.686" stroke="#F4EEEB" stroke-linecap="round"/>
<path d="M185.573 172.751C185.573 174.156 185.841 175.597 185.841 177.039" stroke="#F4EEEB" stroke-linecap="round"/>
<path d="M183.162 175.699C184.567 175.699 185.809 174.627 187.181 174.627" stroke="#F4EEEB" stroke-linecap="round"/>
<path d="M136 169C136.047 169.374 136.172 169.192 136.268 169" stroke="#DBCBB9" stroke-linecap="round"/>
<path d="M142.163 194.725V194.457" stroke="#F4EEEB" stroke-linecap="round"/>
<path d="M39.7964 271.078V274.025" stroke="#F4EEEB" stroke-linecap="round"/>
<path d="M38.4565 272.418C39.4256 272.418 40.3959 272.686 41.4041 272.686" stroke="#F4EEEB" stroke-linecap="round"/>
<path d="M62.5732 258.751C62.5732 260.156 62.8412 261.597 62.8412 263.039" stroke="#F4EEEB" stroke-linecap="round"/>
<path d="M60.1616 261.699C61.5674 261.699 62.8094 260.627 64.1811 260.627" stroke="#F4EEEB" stroke-linecap="round"/>
<path d="M13 255C13.0467 255.374 13.172 255.192 13.268 255" stroke="#DBCBB9" stroke-linecap="round"/>
<path d="M19.1631 280.725V280.457" stroke="#F4EEEB" stroke-linecap="round"/>
<path d="M277 46C277.047 46.3739 277.172 46.1919 277.268 46" stroke="#DBCBB9" stroke-linecap="round"/>
<path d="M283.163 71.7245V71.4565" stroke="#F4EEEB" stroke-linecap="round"/>
<path d="M43.7964 167.078V170.025" stroke="#F4EEEB" stroke-linecap="round"/>
<path d="M42.4565 168.418C43.4256 168.418 44.3959 168.686 45.4041 168.686" stroke="#F4EEEB" stroke-linecap="round"/>
<path d="M66.5732 154.751C66.5732 156.156 66.8412 157.597 66.8412 159.039" stroke="#F4EEEB" stroke-linecap="round"/>
<path d="M64.1616 157.699C65.5674 157.699 66.8094 156.627 68.1811 156.627" stroke="#F4EEEB" stroke-linecap="round"/>
<path d="M17 151C17.0467 151.374 17.172 151.192 17.268 151" stroke="#DBCBB9" stroke-linecap="round"/>
<path d="M23.1631 176.725V176.457" stroke="#F4EEEB" stroke-linecap="round"/>
<path d="M60.4546 114.429V115.501" stroke="#F4EEEB" stroke-linecap="round"/>
<path d="M63.9382 117.913C64.1851 117.882 64.1157 117.826 64.2062 117.645" stroke="#F4EEEB" stroke-linecap="round"/>
<path d="M77.2156 269.823C77.2156 271.621 77.4835 273.407 77.4835 275.183" stroke="#DBCBB9" stroke-linecap="round"/>
<path d="M74 273.307C76.0853 273.307 78.1181 272.771 80.1632 272.771" stroke="#DBCBB9" stroke-linecap="round"/>
<path d="M117.678 281.614C117.65 281.864 117.543 281.95 117.41 282.15" stroke="#DBCBB9" stroke-linecap="round"/>
<path d="M126.253 265V265.536" stroke="#DBCBB9" stroke-linecap="round"/>
<path d="M100.528 268.751C100.338 268.775 100.159 268.936 99.9924 269.019" stroke="#DBCBB9" stroke-linecap="round"/>
</g>
<defs>
<clipPath id="clip0_230_2">
<rect width="300" height="300" fill="white"/>
</clipPath>
</defs>
</svg>
